<svg width="1770" height="1576" viewBox="0 0 1770 1576" fill="none" xmlns="http://www.w3.org/2000/svg">
<g clip-path="url(#clip0_49_341)">
<path d="M1770 0.00195312V736.915H1578.12V0.00195312H1770Z" fill="#EBF7FF"/>
<path d="M1080.9 0.00195312H1224.48C1317.12 0.00195312 1379.7 4.25672 1412.22 12.7662C1445.04 21.2758 1469.94 35.2386 1486.98 54.6547C1503.96 74.0708 1514.64 95.7641 1518.9 119.735C1523.16 143.405 1525.26 190.148 1525.26 259.902V518.004C1525.26 584.163 1522.08 628.448 1515.66 650.921C1509.6 673.093 1498.8 690.532 1483.32 703.236C1467.84 715.701 1448.7 724.45 1425.9 729.604C1403.1 734.458 1368.78 736.915 1322.94 736.915H1080.96V0.00195312H1080.9ZM1272.78 126.087V610.83C1300.44 610.83 1317.42 605.377 1323.84 594.47C1330.2 583.264 1333.44 553.061 1333.44 503.922V217.654C1333.44 184.275 1332.36 162.881 1330.26 153.473C1328.16 144.065 1323.3 137.233 1315.68 132.978C1308.06 128.424 1293.84 126.147 1272.84 126.147L1272.78 126.087Z" fill="#EBF7FF"/>
<path d="M631.14 0.00195312H824.34C876.6 0.00195312 916.68 4.07694 944.64 12.2868C972.9 20.4967 994.02 32.3022 1008 47.7632C1022.28 63.2241 1031.88 82.041 1036.74 104.214C1041.9 126.087 1044.48 160.065 1044.48 206.148V270.329C1044.48 317.371 1039.62 351.649 1029.9 373.223C1020.18 394.796 1002.24 411.276 976.14 422.841C950.34 434.347 916.44 440.16 874.5 440.16H823.02V736.915H631.14V0.00195312ZM822.96 126.087V313.596C828.42 313.896 833.16 314.075 837.06 314.075C854.7 314.075 866.82 309.821 873.54 301.311C880.5 292.502 884.04 274.464 884.04 247.138V186.612C884.04 161.443 880.08 145.023 872.22 137.473C864.3 129.862 847.92 126.087 823.02 126.087H822.96Z" fill="#EBF7FF"/>
<path d="M555.18 390.061C542.16 374.3 516.6 361.716 478.62 352.307C520.56 348.352 548.64 336.547 562.92 316.831C577.2 297.055 584.34 258.523 584.34 201.173C584.34 138.371 574.2 92.7069 553.86 64.182C533.76 35.3575 507.66 17.4395 475.44 10.4881C443.52 3.4767 382.32 0.000976562 291.78 0.000976562H156V528.97C186.06 518.483 218.34 512.79 252 512.79C285.66 512.79 317.82 518.483 347.82 528.91V404.623C374.28 404.623 390.54 409.357 396.6 418.765C402.96 428.174 406.2 452.624 406.2 492.055V556.776C470.52 596.746 518.1 661.107 536.1 736.914H584.34V542.573C584.34 483.066 582.72 446.811 579.36 433.807C576.3 420.443 568.26 405.881 555.18 390.061ZM406.2 223.526C406.2 255.946 401.76 275.242 392.94 281.295C384.48 287.048 369.42 289.924 347.82 289.924V126.086C370.02 126.086 385.2 129.741 393.42 136.992C401.94 144.303 406.2 159.644 406.2 183.016V223.526Z" fill="#EBF7FF"/>
<path d="M1770 1576H1574.04V986.328H1516.02V1576H1320.06V838.909H1770.06V1576H1770Z" fill="#EBF7FF"/>
<path d="M864 838.909H1060.32C1113.42 838.909 1154.16 842.984 1182.54 851.193C1211.28 859.403 1232.7 871.269 1246.92 886.67C1261.44 902.131 1271.16 920.948 1276.08 943.12C1281.36 964.993 1283.94 998.972 1283.94 1045.11V1109.3C1283.94 1156.34 1279.02 1190.68 1269.12 1212.19C1259.28 1233.76 1241.04 1250.3 1214.52 1261.81C1188.3 1273.31 1153.86 1279.13 1111.26 1279.13H1058.94V1575.94H864V838.849V838.909ZM1058.94 965.053V1152.62C1064.52 1152.92 1069.26 1153.1 1073.28 1153.1C1091.22 1153.1 1103.52 1148.85 1110.36 1140.4C1117.44 1131.59 1120.98 1113.55 1120.98 1086.22V1025.7C1120.98 1000.47 1116.96 984.11 1108.92 976.559C1100.88 969.008 1084.2 965.173 1058.88 965.173L1058.94 965.053Z" fill="#EBF7FF"/>
<path d="M820.14 943.12C815.22 920.948 805.44 902.131 790.98 886.67C776.82 871.209 755.34 859.343 726.6 851.134C698.16 842.924 657.48 838.849 604.38 838.849H538.98C529.14 927.18 479.34 1003.41 408 1049.19V1575.94H602.94V1279.13H655.26C697.86 1279.13 732.3 1273.37 758.52 1261.81C785.1 1250.3 803.28 1233.7 813.18 1212.19C823.08 1190.62 828 1156.34 828 1109.3V1045.11C828 998.972 825.36 964.993 820.14 943.12ZM664.98 1086.1C664.98 1113.43 661.44 1131.53 654.3 1140.28C647.52 1148.79 635.16 1153.04 617.22 1153.04C613.26 1153.04 608.46 1152.92 602.88 1152.62V965.053C628.2 965.053 644.88 968.829 652.86 976.439C660.9 984.05 664.92 1000.41 664.92 1025.58V1086.1H664.98Z" fill="#EBF7FF"/>
<path d="M348 1078.61V1576H156V1078.61C186 1089.52 218.34 1095.39 252 1095.39C285.66 1095.39 318 1089.46 348 1078.61Z" fill="#EBF7FF"/>
<path d="M492 732.6C475.38 745.784 456.84 757.35 436.8 766.998C431.64 704.195 413.82 646.187 385.32 600.643C381.06 593.811 376.56 587.279 372 581.227C429.3 612.748 473.1 667.161 492 732.6Z" fill="#EBF7FF"/>
<path d="M132.001 581.227C127.321 587.279 122.881 593.751 118.561 600.523C90.6005 644.629 72.8405 700.48 67.2005 761.005C47.5205 751.657 29.0405 740.87 12.0605 728.645C31.6205 665.003 75.2405 612.089 132.061 581.227H132.001Z" fill="#EBF7FF"/>
<path d="M72 886.851C45.72 866.595 21.42 842.026 0.18 813.74C0.06 810.804 0 807.868 0 804.931C0 792.047 0.96 779.343 2.82 766.998C21.96 779.523 42.6 790.609 64.44 800.017C64.44 801.635 64.44 803.313 64.44 804.931C64.44 833.097 67.02 860.603 72 886.851Z" fill="#EBF7FF"/>
<path d="M504 806.67C504 811.224 503.88 815.659 503.64 820.093C498.36 827.464 492.9 834.595 487.2 841.367C468.72 863.66 448.2 882.896 426 898.836C430.26 880.319 433.26 861.143 434.88 841.367C435.78 830.101 436.26 818.715 436.26 807.209C459.66 797.741 481.56 786.295 501.6 772.991C503.1 784.018 503.94 795.224 503.94 806.67H504Z" fill="#EBF7FF"/>
<path d="M131.999 1030.67C128.039 1028.52 124.259 1026.24 120.419 1023.9C80.6995 998.973 48.2395 962.778 27.1795 919.571C21.1195 907.226 16.0195 894.342 11.9395 880.858C34.7995 904.409 59.7595 924.724 86.2195 941.264C88.1395 947.077 90.2395 952.83 92.3995 958.463C99.5995 977.1 108.179 994.538 118.079 1010.48C118.199 1010.66 118.319 1010.9 118.439 1011.08C122.759 1018.03 127.259 1024.56 131.879 1030.73L131.999 1030.67Z" fill="#EBF7FF"/>
<path d="M485.999 892.843C484.319 897.697 482.459 902.431 480.479 907.105C464.339 945.638 439.619 979.196 408.839 1005.02C404.819 1008.44 400.679 1011.68 396.419 1014.79C388.619 1020.61 380.459 1025.94 371.939 1030.67C376.559 1024.5 380.999 1017.91 385.199 1010.9C389.159 1004.43 392.879 997.714 396.419 990.762C400.919 981.893 405.059 972.664 408.839 963.136C410.279 959.481 411.719 955.765 413.039 952.05C433.859 939.765 453.539 924.723 471.899 907.105C476.699 902.551 481.379 897.757 485.939 892.843H485.999Z" fill="#EBF7FF"/>
<path d="M402.001 779.641C379.381 787.372 355.441 793.185 330.481 796.96C330.301 775.207 329.521 753.813 328.081 733.139C324.541 683.46 317.341 637.856 306.961 600.702C303.001 586.559 298.681 574.094 294.061 563.308C312.661 572.896 330.241 588.477 345.841 609.451C348.361 612.867 350.881 616.342 353.281 620.058C381.541 663.025 398.521 718.996 402.121 779.761L402.001 779.641Z" fill="#EBF7FF"/>
<path d="M294 801.696C281.52 802.655 268.8 803.074 255.96 802.894C240.48 802.715 225.12 801.696 210 799.958C210.06 777.246 210.84 755.073 212.34 733.74C215.52 687.297 221.94 644.989 231.06 610.531C238.56 582.066 246 566.725 250.92 558.875C251.28 558.276 251.64 557.736 251.94 557.257C252.3 557.736 252.6 558.336 253.02 558.875C257.94 566.665 265.38 582.006 272.88 610.531C282 644.989 288.36 687.297 291.6 733.74C293.1 755.613 293.94 778.445 294 801.696Z" fill="#EBF7FF"/>
<path d="M210 563.249C205.32 574.216 201.06 586.86 197.04 601.182C186.6 638.876 179.34 685.019 175.86 735.417C174.48 755.373 173.64 775.987 173.46 797.021C148.8 792.407 124.8 785.935 102 777.725C106.14 718.039 123.06 663.146 150.66 620.778C152.16 618.501 153.6 616.344 155.16 614.186C171.48 590.875 190.2 573.676 210 563.309V563.249Z" fill="#EBF7FF"/>
<path d="M402 820.932C400.74 857.966 394.14 893.382 382.8 925.203C371.28 930.597 359.46 935.271 347.28 939.106C345.3 939.765 343.26 940.365 341.28 940.964C333.6 943.241 325.86 945.159 318 946.777C320.1 934.132 321.96 920.889 323.46 907.225C325.74 886.311 327.36 864.438 328.14 841.846C328.2 840.048 328.26 838.25 328.32 836.453C353.88 833.097 378.54 827.943 401.94 820.992L402 820.932Z" fill="#EBF7FF"/>
<path d="M294 840.527C294 841.186 294 841.845 294 842.444C293.22 864.917 291.72 886.73 289.44 907.344C287.76 922.865 285.6 937.787 283.14 951.87C278.88 952.229 274.62 952.469 270.36 952.589C253.8 953.128 237.18 952.109 220.74 949.532C218.4 936.169 216.48 922.026 214.86 907.344C212.58 886.67 211.02 864.917 210.3 842.444C210.24 841.246 210.24 840.047 210.18 838.849C225.24 840.467 240.48 841.306 255.84 841.485H262.32C273.06 841.485 283.68 841.186 294.18 840.467L294 840.527Z" fill="#EBF7FF"/>
<path d="M180 940.783C177.24 940.004 174.42 939.105 171.66 938.206C165.48 936.169 159.36 934.011 153.3 931.554C140.94 926.64 128.82 920.947 117 914.296C107.82 883.553 102.72 849.875 102 814.878C124.2 822.309 147.3 828.182 171 832.316C171.06 835.133 171.12 838.009 171.24 840.766C171.96 863.358 173.46 885.291 175.68 906.206C176.88 918.011 178.38 929.577 180.06 940.723L180 940.783Z" fill="#EBF7FF"/>
<path d="M210 1048.65C197.88 1042.06 186.18 1032.77 175.2 1020.9C168.6 1013.77 162.24 1005.74 156.3 996.814C154.8 994.597 153.36 992.38 151.92 990.102C146.88 982.072 142.32 973.623 138 964.813C144.06 967.39 150.12 969.787 156.3 972.005C162.54 974.222 168.84 976.319 175.2 978.177C180.36 979.675 185.52 981.053 190.74 982.312C192.72 992.02 194.94 1001.31 197.28 1010.06C201.18 1024.68 205.38 1037.56 210 1048.71V1048.65Z" fill="#EBF7FF"/>
<path d="M276 990.404C275.22 993.699 274.44 996.816 273.6 999.992C265.92 1029.24 258.3 1044.94 253.26 1052.97C252.84 1053.63 252.54 1054.16 252.18 1054.7C251.82 1054.22 251.46 1053.63 251.1 1052.97C246.06 1044.94 238.44 1029.24 230.76 999.992C229.8 996.336 228.84 992.561 228 988.726C239.46 990.044 250.92 990.703 262.32 990.703C265.5 990.703 268.62 990.643 271.74 990.583C273.18 990.523 274.62 990.463 276.06 990.404H276Z" fill="#EBF7FF"/>
<path d="M366.001 970.746C362.881 976.618 359.461 982.311 355.981 987.824C354.421 990.222 352.921 992.559 351.301 994.836C349.261 997.772 347.221 1000.65 345.121 1003.35C329.581 1023.78 312.301 1039 294.061 1048.59C298.921 1037.02 303.421 1023.66 307.621 1008.5C309.781 1000.71 311.761 992.619 313.621 984.169C324.301 982.371 334.801 980.094 345.121 977.218C347.161 976.678 349.261 976.079 351.301 975.48C356.281 973.982 361.201 972.423 366.001 970.686V970.746Z" fill="#EBF7FF"/>
</g>
<defs>
<clipPath id="clip0_49_341">
<rect width="1770" height="1576" fill="white"/>
</clipPath>
</defs>
</svg>
